# xmcd CD database file
#
# Track frame offsets:
#	150
#	15133
#	28023
#	45448
#	55755
#	66290
#	81885
#	94575
#	107667
#	122142
#	137202
#	148455
#	158772
#	173325
#	183770
#	195230
#	205060
#	218995
#
# Disc length: 3111 seconds
#
# Revision: 0
# Processed by: cddbd v1.5.1PL0 Copyright (c) Steve Scherf et al.
# Submitted via: CDex 1.51
#
DISCID=eb0c2512
DTITLE=Kenny Rogers - Ruby don't take your love to town
DYEAR=1999
DGENRE=Country
TTITLE0=Conditions (1968)
TTITLE1=Ruby don't take your love to town (1969)
TTITLE2=Something's Burning (1970)
TTITLE3=Ticket to Nowhere
TTITLE4=She even woke me up to say goodbye
TTITLE5=My Washington woman
TTITLE6=Run through your mind
TTITLE7=Sleep comes easy
TTITLE8=After all ( I live my life)
TTITLE9=For the good times
TTITLE10=Hurry up, Love
TTITLE11=Trying just as hard
TTITLE12=Heed the call
TTITLE13=We all got to help each other
TTITLE14=Poem for my little girl
TTITLE15=Where does rosy go
TTITLE16=Sunshine
TTITLE17=Church without a name
EXTD=YEAR: 1999
EXTT0=
EXTT1=
EXTT2=
EXTT3=
EXTT4=
EXTT5=
EXTT6=
EXTT7=
EXTT8=
EXTT9=
EXTT10=
EXTT11=
EXTT12=
EXTT13=
EXTT14=
EXTT15=
EXTT16=
EXTT17=
PLAYORDER=
